<svg xmlns="http://www.w3.org/2000/svg" viewBox="0 0 120 160" fill="none">
  <ellipse cx="60" cy="148" rx="34" ry="8" fill="#6eb4ff" opacity="0.25"/>
  <path d="M60 24c14 0 22 10 22 24v18c0 12-8 20-22 20s-22-8-22-20V48c0-14 8-24 22-24z" fill="#7eb8ff"/>
  <path d="M38 66c-6 18-8 38-8 58h60c0-20-2-40-8-58" fill="#6aaef5"/>
  <path d="M46 88h28M50 104h20M52 120h16" stroke="#b8dcff" stroke-width="3" stroke-linecap="round" opacity="0.7"/>
  <path d="M38 66 28 98M82 66 92 98" stroke="#7eb8ff" stroke-width="8" stroke-linecap="round"/>
</svg>
