<svg xmlns="http://www.w3.org/2000/svg" width="398" height="280" viewBox="0 0 398 280" role="img" aria-label="??????">
  <defs>
    <pattern id="grid" width="16" height="16" patternUnits="userSpaceOnUse">
      <path d="M16 0H0V16" fill="none" stroke="#e8eef5" stroke-width="1"/>
    </pattern>
  </defs>
  <rect width="398" height="280" rx="12" fill="#f5f8fb"/>
  <rect x="24" y="16" width="350" height="228" rx="10" fill="url(#grid)"/>
  <ellipse cx="199" cy="52" rx="28" ry="32" fill="#cfd6de"/>
  <path d="M168 108c8-26 21-38 31-38s23 12 31 38l16 74H152z" fill="#b8c2cd"/>
  <path d="M160 112l-48 36M238 112l48 36" stroke="#9aa7b5" stroke-width="16" stroke-linecap="round"/>
  <path d="M176 182l-16 56M222 182l16 56" stroke="#9aa7b5" stroke-width="16" stroke-linecap="round"/>
  <line x1="199" y1="22" x2="199" y2="248" stroke="#f59e0b" stroke-width="2" opacity="0.85"/>
  <line x1="148" y1="118" x2="250" y2="112" stroke="#ef4444" stroke-width="2"/>
  <line x1="158" y1="176" x2="240" y2="176" stroke="#207fe8" stroke-width="2" stroke-dasharray="4 3"/>
  <circle cx="148" cy="118" r="4" fill="#ef4444"/>
  <circle cx="250" cy="112" r="4" fill="#ef4444"/>
  <circle cx="158" cy="176" r="4" fill="#207fe8"/>
  <circle cx="240" cy="176" r="4" fill="#207fe8"/>
  <text x="199" y="266" text-anchor="middle" font-size="12" fill="#64748b" font-family="PingFang SC,sans-serif">????????</text>
</svg>
